<svg width="82" height="14" viewBox="0 0 82 14" fill="none" xmlns="http://www.w3.org/2000/svg">
<g filter="url(#filter0_f_2_64)">
<path d="M8.07759 10.737V2.33704H11.4976C12.3936 2.33704 13.1776 2.51704 13.8496 2.87704C14.5296 3.22905 15.0576 3.72105 15.4336 4.35305C15.8096 4.98505 15.9976 5.71305 15.9976 6.53705C15.9976 7.36105 15.8096 8.08905 15.4336 8.72105C15.0576 9.35305 14.5296 9.84905 13.8496 10.209C13.1776 10.561 12.3936 10.737 11.4976 10.737H8.07759ZM8.96559 9.96905H11.4496C12.1936 9.96905 12.8376 9.82505 13.3816 9.53705C13.9336 9.24105 14.3616 8.83705 14.6656 8.32505C14.9696 7.80505 15.1216 7.20905 15.1216 6.53705C15.1216 5.85705 14.9696 5.26105 14.6656 4.74905C14.3616 4.23705 13.9336 3.83704 13.3816 3.54904C12.8376 3.25304 12.1936 3.10505 11.4496 3.10505H8.96559V9.96905Z" fill="#343A40"/>
<path d="M17.9917 10.737V2.33704H18.8797V10.737H17.9917Z" fill="#343A40"/>
<path d="M20.2688 10.737L24.1088 2.33704H24.9848L28.8248 10.737H27.8888L24.3608 2.85305H24.7208L21.1928 10.737H20.2688ZM21.7808 8.49304L22.0448 7.77305H26.9288L27.1928 8.49304H21.7808Z" fill="#343A40"/>
<path d="M33.7811 10.809C33.1411 10.809 32.5491 10.705 32.0051 10.497C31.4691 10.281 31.0011 9.98104 30.6011 9.59704C30.2091 9.21304 29.9011 8.76104 29.6771 8.24104C29.4611 7.72105 29.3531 7.15305 29.3531 6.53705C29.3531 5.92105 29.4611 5.35305 29.6771 4.83305C29.9011 4.31305 30.2131 3.86105 30.6131 3.47705C31.0131 3.09304 31.4811 2.79704 32.0171 2.58905C32.5611 2.37305 33.1531 2.26505 33.7931 2.26505C34.4331 2.26505 35.0171 2.36505 35.5451 2.56504C36.0811 2.76505 36.5371 3.06905 36.9131 3.47705L36.3611 4.04105C36.0091 3.68905 35.6211 3.43704 35.1971 3.28504C34.7731 3.13304 34.3171 3.05705 33.8291 3.05705C33.3091 3.05705 32.8291 3.14505 32.3891 3.32105C31.9571 3.48905 31.5771 3.73305 31.2491 4.05305C30.9291 4.36505 30.6771 4.73305 30.4931 5.15705C30.3171 5.57305 30.2291 6.03305 30.2291 6.53705C30.2291 7.03305 30.3171 7.49305 30.4931 7.91705C30.6771 8.34105 30.9291 8.71304 31.2491 9.03304C31.5771 9.34504 31.9571 9.58905 32.3891 9.76505C32.8291 9.93305 33.3051 10.017 33.8171 10.017C34.2971 10.017 34.7491 9.94505 35.1731 9.80105C35.6051 9.65705 36.0011 9.41305 36.3611 9.06905L36.8651 9.74104C36.4651 10.093 35.9971 10.361 35.4611 10.545C34.9251 10.721 34.3651 10.809 33.7811 10.809ZM36.0131 9.63305V6.53705H36.8651V9.74104L36.0131 9.63305Z" fill="#343A40"/>
<path d="M39.3784 10.737V2.33704H40.1104L45.9064 9.63305H45.5224V2.33704H46.3984V10.737H45.6664L39.8824 3.44105H40.2664V10.737H39.3784Z" fill="#343A40"/>
<path d="M52.8121 10.809C52.1801 10.809 51.5921 10.705 51.0481 10.497C50.5121 10.281 50.0441 9.98104 49.6441 9.59704C49.2521 9.20504 48.9441 8.75304 48.7201 8.24104C48.5041 7.72105 48.3961 7.15305 48.3961 6.53705C48.3961 5.92105 48.5041 5.35705 48.7201 4.84505C48.9441 4.32505 49.2521 3.87305 49.6441 3.48905C50.0441 3.09705 50.5121 2.79704 51.0481 2.58905C51.5841 2.37305 52.1721 2.26505 52.8121 2.26505C53.4441 2.26505 54.0281 2.37305 54.5641 2.58905C55.1001 2.79704 55.5641 3.09304 55.9561 3.47705C56.3561 3.86105 56.6641 4.31305 56.8801 4.83305C57.1041 5.35305 57.2161 5.92105 57.2161 6.53705C57.2161 7.15305 57.1041 7.72105 56.8801 8.24104C56.6641 8.76104 56.3561 9.21304 55.9561 9.59704C55.5641 9.98104 55.1001 10.281 54.5641 10.497C54.0281 10.705 53.4441 10.809 52.8121 10.809ZM52.8121 10.017C53.3161 10.017 53.7801 9.93305 54.2041 9.76505C54.6361 9.58905 55.0081 9.34504 55.3201 9.03304C55.6401 8.71304 55.8881 8.34504 56.0641 7.92904C56.2401 7.50504 56.3281 7.04105 56.3281 6.53705C56.3281 6.03305 56.2401 5.57305 56.0641 5.15705C55.8881 4.73305 55.6401 4.36505 55.3201 4.05305C55.0081 3.73305 54.6361 3.48905 54.2041 3.32105C53.7801 3.14505 53.3161 3.05705 52.8121 3.05705C52.3081 3.05705 51.8401 3.14505 51.4081 3.32105C50.9761 3.48905 50.6001 3.73305 50.2801 4.05305C49.9681 4.36505 49.7201 4.73305 49.5361 5.15705C49.3601 5.57305 49.2721 6.03305 49.2721 6.53705C49.2721 7.03305 49.3601 7.49305 49.5361 7.91705C49.7201 8.34105 49.9681 8.71304 50.2801 9.03304C50.6001 9.34504 50.9761 9.58905 51.4081 9.76505C51.8401 9.93305 52.3081 10.017 52.8121 10.017Z" fill="#343A40"/>
<path d="M61.5225 10.809C60.8985 10.809 60.2985 10.709 59.7225 10.509C59.1545 10.301 58.7145 10.037 58.4025 9.71704L58.7505 9.03304C59.0465 9.32104 59.4425 9.56505 59.9385 9.76505C60.4425 9.95705 60.9705 10.053 61.5225 10.053C62.0505 10.053 62.4785 9.98904 62.8065 9.86104C63.1425 9.72504 63.3865 9.54504 63.5385 9.32104C63.6985 9.09704 63.7785 8.84905 63.7785 8.57705C63.7785 8.24905 63.6825 7.98505 63.4905 7.78505C63.3065 7.58505 63.0625 7.42905 62.7585 7.31705C62.4545 7.19705 62.1185 7.09304 61.7505 7.00504C61.3825 6.91704 61.0145 6.82504 60.6465 6.72904C60.2785 6.62505 59.9385 6.48905 59.6265 6.32104C59.3225 6.15304 59.0745 5.93305 58.8825 5.66105C58.6985 5.38105 58.6065 5.01705 58.6065 4.56905C58.6065 4.15304 58.7145 3.77304 58.9305 3.42904C59.1545 3.07704 59.4945 2.79704 59.9505 2.58905C60.4065 2.37305 60.9905 2.26505 61.7025 2.26505C62.1745 2.26505 62.6425 2.33305 63.1065 2.46905C63.5705 2.59705 63.9705 2.77705 64.3065 3.00904L64.0065 3.71705C63.6465 3.47705 63.2625 3.30105 62.8545 3.18905C62.4545 3.07705 62.0665 3.02105 61.6905 3.02105C61.1865 3.02105 60.7705 3.08905 60.4425 3.22504C60.1145 3.36105 59.8705 3.54505 59.7105 3.77705C59.5585 4.00104 59.4825 4.25705 59.4825 4.54505C59.4825 4.87305 59.5745 5.13705 59.7585 5.33705C59.9505 5.53705 60.1985 5.69305 60.5025 5.80505C60.8145 5.91705 61.1545 6.01705 61.5225 6.10505C61.8905 6.19305 62.2545 6.28905 62.6145 6.39305C62.9825 6.49705 63.3185 6.63305 63.6225 6.80105C63.9345 6.96105 64.1825 7.17705 64.3665 7.44905C64.5585 7.72105 64.6545 8.07704 64.6545 8.51705C64.6545 8.92505 64.5425 9.30505 64.3185 9.65705C64.0945 10.001 63.7505 10.281 63.2865 10.497C62.8305 10.705 62.2425 10.809 61.5225 10.809Z" fill="#343A40"/>
<path d="M68.4175 10.737V7.61705L68.6215 8.16905L65.0575 2.33704H66.0055L69.1375 7.46105H68.6335L71.7655 2.33704H72.6535L69.0895 8.16905L69.2935 7.61705V10.737H68.4175Z" fill="#343A40"/>
<path d="M76.1709 10.809C75.5469 10.809 74.9469 10.709 74.3709 10.509C73.8029 10.301 73.3629 10.037 73.0509 9.71704L73.3989 9.03304C73.6949 9.32104 74.0909 9.56505 74.5869 9.76505C75.0909 9.95705 75.6189 10.053 76.1709 10.053C76.6989 10.053 77.1269 9.98904 77.4549 9.86104C77.7909 9.72504 78.0349 9.54504 78.1869 9.32104C78.3469 9.09704 78.4269 8.84905 78.4269 8.57705C78.4269 8.24905 78.3309 7.98505 78.1389 7.78505C77.9549 7.58505 77.7109 7.42905 77.4069 7.31705C77.1029 7.19705 76.7669 7.09304 76.3989 7.00504C76.0309 6.91704 75.6629 6.82504 75.2949 6.72904C74.9269 6.62505 74.5869 6.48905 74.2749 6.32104C73.9709 6.15304 73.7229 5.93305 73.5309 5.66105C73.3469 5.38105 73.2549 5.01705 73.2549 4.56905C73.2549 4.15304 73.3629 3.77304 73.5789 3.42904C73.8029 3.07704 74.1429 2.79704 74.5989 2.58905C75.0549 2.37305 75.6389 2.26505 76.3509 2.26505C76.8229 2.26505 77.2909 2.33305 77.7549 2.46905C78.2189 2.59705 78.6189 2.77705 78.9549 3.00904L78.6549 3.71705C78.2949 3.47705 77.9109 3.30105 77.5029 3.18905C77.1029 3.07705 76.7149 3.02105 76.3389 3.02105C75.8349 3.02105 75.4189 3.08905 75.0909 3.22504C74.7629 3.36105 74.5189 3.54505 74.3589 3.77705C74.2069 4.00104 74.1309 4.25705 74.1309 4.54505C74.1309 4.87305 74.2229 5.13705 74.4069 5.33705C74.5989 5.53705 74.8469 5.69305 75.1509 5.80505C75.4629 5.91705 75.8029 6.01705 76.1709 6.10505C76.5389 6.19305 76.9029 6.28905 77.2629 6.39305C77.6309 6.49705 77.9669 6.63305 78.2709 6.80105C78.5829 6.96105 78.8309 7.17705 79.0149 7.44905C79.2069 7.72105 79.3029 8.07704 79.3029 8.51705C79.3029 8.92505 79.1909 9.30505 78.9669 9.65705C78.7429 10.001 78.3989 10.281 77.9349 10.497C77.4789 10.705 76.8909 10.809 76.1709 10.809Z" fill="#343A40"/>
<path d="M3.70959 3.73705H4.70959V8.73705H3.70959V3.73705Z" fill="#343A40"/>
<path d="M6.70959 5.73705V6.73705H1.70959L1.70959 5.73705L6.70959 5.73705Z" fill="#343A40"/>
</g>
<g filter="url(#filter1_d_2_64)">
<path d="M8.07759 10.737V2.33704H11.4976C12.3936 2.33704 13.1776 2.51704 13.8496 2.87704C14.5296 3.22905 15.0576 3.72105 15.4336 4.35305C15.8096 4.98505 15.9976 5.71305 15.9976 6.53705C15.9976 7.36105 15.8096 8.08905 15.4336 8.72105C15.0576 9.35305 14.5296 9.84905 13.8496 10.209C13.1776 10.561 12.3936 10.737 11.4976 10.737H8.07759ZM8.96559 9.96905H11.4496C12.1936 9.96905 12.8376 9.82505 13.3816 9.53705C13.9336 9.24105 14.3616 8.83705 14.6656 8.32505C14.9696 7.80505 15.1216 7.20905 15.1216 6.53705C15.1216 5.85705 14.9696 5.26105 14.6656 4.74905C14.3616 4.23705 13.9336 3.83704 13.3816 3.54904C12.8376 3.25304 12.1936 3.10505 11.4496 3.10505H8.96559V9.96905Z" fill="#343A40"/>
<path d="M17.9917 10.737V2.33704H18.8797V10.737H17.9917Z" fill="#343A40"/>
<path d="M20.2688 10.737L24.1088 2.33704H24.9848L28.8248 10.737H27.8888L24.3608 2.85305H24.7208L21.1928 10.737H20.2688ZM21.7808 8.49304L22.0448 7.77305H26.9288L27.1928 8.49304H21.7808Z" fill="#343A40"/>
<path d="M33.7811 10.809C33.1411 10.809 32.5491 10.705 32.0051 10.497C31.4691 10.281 31.0011 9.98104 30.6011 9.59704C30.2091 9.21304 29.9011 8.76104 29.6771 8.24104C29.4611 7.72105 29.3531 7.15305 29.3531 6.53705C29.3531 5.92105 29.4611 5.35305 29.6771 4.83305C29.9011 4.31305 30.2131 3.86105 30.6131 3.47705C31.0131 3.09304 31.4811 2.79704 32.0171 2.58905C32.5611 2.37305 33.1531 2.26505 33.7931 2.26505C34.4331 2.26505 35.0171 2.36505 35.5451 2.56504C36.0811 2.76505 36.5371 3.06905 36.9131 3.47705L36.3611 4.04105C36.0091 3.68905 35.6211 3.43704 35.1971 3.28504C34.7731 3.13304 34.3171 3.05705 33.8291 3.05705C33.3091 3.05705 32.8291 3.14505 32.3891 3.32105C31.9571 3.48905 31.5771 3.73305 31.2491 4.05305C30.9291 4.36505 30.6771 4.73305 30.4931 5.15705C30.3171 5.57305 30.2291 6.03305 30.2291 6.53705C30.2291 7.03305 30.3171 7.49305 30.4931 7.91705C30.6771 8.34105 30.9291 8.71304 31.2491 9.03304C31.5771 9.34504 31.9571 9.58905 32.3891 9.76505C32.8291 9.93305 33.3051 10.017 33.8171 10.017C34.2971 10.017 34.7491 9.94505 35.1731 9.80105C35.6051 9.65705 36.0011 9.41305 36.3611 9.06905L36.8651 9.74104C36.4651 10.093 35.9971 10.361 35.4611 10.545C34.9251 10.721 34.3651 10.809 33.7811 10.809ZM36.0131 9.63305V6.53705H36.8651V9.74104L36.0131 9.63305Z" fill="#343A40"/>
<path d="M39.3784 10.737V2.33704H40.1104L45.9064 9.63305H45.5224V2.33704H46.3984V10.737H45.6664L39.8824 3.44105H40.2664V10.737H39.3784Z" fill="#343A40"/>
<path d="M52.8121 10.809C52.1801 10.809 51.5921 10.705 51.0481 10.497C50.5121 10.281 50.0441 9.98104 49.6441 9.59704C49.2521 9.20504 48.9441 8.75304 48.7201 8.24104C48.5041 7.72105 48.3961 7.15305 48.3961 6.53705C48.3961 5.92105 48.5041 5.35705 48.7201 4.84505C48.9441 4.32505 49.2521 3.87305 49.6441 3.48905C50.0441 3.09705 50.5121 2.79704 51.0481 2.58905C51.5841 2.37305 52.1721 2.26505 52.8121 2.26505C53.4441 2.26505 54.0281 2.37305 54.5641 2.58905C55.1001 2.79704 55.5641 3.09304 55.9561 3.47705C56.3561 3.86105 56.6641 4.31305 56.8801 4.83305C57.1041 5.35305 57.2161 5.92105 57.2161 6.53705C57.2161 7.15305 57.1041 7.72105 56.8801 8.24104C56.6641 8.76104 56.3561 9.21304 55.9561 9.59704C55.5641 9.98104 55.1001 10.281 54.5641 10.497C54.0281 10.705 53.4441 10.809 52.8121 10.809ZM52.8121 10.017C53.3161 10.017 53.7801 9.93305 54.2041 9.76505C54.6361 9.58905 55.0081 9.34504 55.3201 9.03304C55.6401 8.71304 55.8881 8.34504 56.0641 7.92904C56.2401 7.50504 56.3281 7.04105 56.3281 6.53705C56.3281 6.03305 56.2401 5.57305 56.0641 5.15705C55.8881 4.73305 55.6401 4.36505 55.3201 4.05305C55.0081 3.73305 54.6361 3.48905 54.2041 3.32105C53.7801 3.14505 53.3161 3.05705 52.8121 3.05705C52.3081 3.05705 51.8401 3.14505 51.4081 3.32105C50.9761 3.48905 50.6001 3.73305 50.2801 4.05305C49.9681 4.36505 49.7201 4.73305 49.5361 5.15705C49.3601 5.57305 49.2721 6.03305 49.2721 6.53705C49.2721 7.03305 49.3601 7.49305 49.5361 7.91705C49.7201 8.34105 49.9681 8.71304 50.2801 9.03304C50.6001 9.34504 50.9761 9.58905 51.4081 9.76505C51.8401 9.93305 52.3081 10.017 52.8121 10.017Z" fill="#343A40"/>
<path d="M61.5225 10.809C60.8985 10.809 60.2985 10.709 59.7225 10.509C59.1545 10.301 58.7145 10.037 58.4025 9.71704L58.7505 9.03304C59.0465 9.32104 59.4425 9.56505 59.9385 9.76505C60.4425 9.95705 60.9705 10.053 61.5225 10.053C62.0505 10.053 62.4785 9.98904 62.8065 9.86104C63.1425 9.72504 63.3865 9.54504 63.5385 9.32104C63.6985 9.09704 63.7785 8.84905 63.7785 8.57705C63.7785 8.24905 63.6825 7.98505 63.4905 7.78505C63.3065 7.58505 63.0625 7.42905 62.7585 7.31705C62.4545 7.19705 62.1185 7.09304 61.7505 7.00504C61.3825 6.91704 61.0145 6.82504 60.6465 6.72904C60.2785 6.62505 59.9385 6.48905 59.6265 6.32104C59.3225 6.15304 59.0745 5.93305 58.8825 5.66105C58.6985 5.38105 58.6065 5.01705 58.6065 4.56905C58.6065 4.15304 58.7145 3.77304 58.9305 3.42904C59.1545 3.07704 59.4945 2.79704 59.9505 2.58905C60.4065 2.37305 60.9905 2.26505 61.7025 2.26505C62.1745 2.26505 62.6425 2.33305 63.1065 2.46905C63.5705 2.59705 63.9705 2.77705 64.3065 3.00904L64.0065 3.71705C63.6465 3.47705 63.2625 3.30105 62.8545 3.18905C62.4545 3.07705 62.0665 3.02105 61.6905 3.02105C61.1865 3.02105 60.7705 3.08905 60.4425 3.22504C60.1145 3.36105 59.8705 3.54505 59.7105 3.77705C59.5585 4.00104 59.4825 4.25705 59.4825 4.54505C59.4825 4.87305 59.5745 5.13705 59.7585 5.33705C59.9505 5.53705 60.1985 5.69305 60.5025 5.80505C60.8145 5.91705 61.1545 6.01705 61.5225 6.10505C61.8905 6.19305 62.2545 6.28905 62.6145 6.39305C62.9825 6.49705 63.3185 6.63305 63.6225 6.80105C63.9345 6.96105 64.1825 7.17705 64.3665 7.44905C64.5585 7.72105 64.6545 8.07704 64.6545 8.51705C64.6545 8.92505 64.5425 9.30505 64.3185 9.65705C64.0945 10.001 63.7505 10.281 63.2865 10.497C62.8305 10.705 62.2425 10.809 61.5225 10.809Z" fill="#343A40"/>
<path d="M68.4175 10.737V7.61705L68.6215 8.16905L65.0575 2.33704H66.0055L69.1375 7.46105H68.6335L71.7655 2.33704H72.6535L69.0895 8.16905L69.2935 7.61705V10.737H68.4175Z" fill="#343A40"/>
<path d="M76.1709 10.809C75.5469 10.809 74.9469 10.709 74.3709 10.509C73.8029 10.301 73.3629 10.037 73.0509 9.71704L73.3989 9.03304C73.6949 9.32104 74.0909 9.56505 74.5869 9.76505C75.0909 9.95705 75.6189 10.053 76.1709 10.053C76.6989 10.053 77.1269 9.98904 77.4549 9.86104C77.7909 9.72504 78.0349 9.54504 78.1869 9.32104C78.3469 9.09704 78.4269 8.84905 78.4269 8.57705C78.4269 8.24905 78.3309 7.98505 78.1389 7.78505C77.9549 7.58505 77.7109 7.42905 77.4069 7.31705C77.1029 7.19705 76.7669 7.09304 76.3989 7.00504C76.0309 6.91704 75.6629 6.82504 75.2949 6.72904C74.9269 6.62505 74.5869 6.48905 74.2749 6.32104C73.9709 6.15304 73.7229 5.93305 73.5309 5.66105C73.3469 5.38105 73.2549 5.01705 73.2549 4.56905C73.2549 4.15304 73.3629 3.77304 73.5789 3.42904C73.8029 3.07704 74.1429 2.79704 74.5989 2.58905C75.0549 2.37305 75.6389 2.26505 76.3509 2.26505C76.8229 2.26505 77.2909 2.33305 77.7549 2.46905C78.2189 2.59705 78.6189 2.77705 78.9549 3.00904L78.6549 3.71705C78.2949 3.47705 77.9109 3.30105 77.5029 3.18905C77.1029 3.07705 76.7149 3.02105 76.3389 3.02105C75.8349 3.02105 75.4189 3.08905 75.0909 3.22504C74.7629 3.36105 74.5189 3.54505 74.3589 3.77705C74.2069 4.00104 74.1309 4.25705 74.1309 4.54505C74.1309 4.87305 74.2229 5.13705 74.4069 5.33705C74.5989 5.53705 74.8469 5.69305 75.1509 5.80505C75.4629 5.91705 75.8029 6.01705 76.1709 6.10505C76.5389 6.19305 76.9029 6.28905 77.2629 6.39305C77.6309 6.49705 77.9669 6.63305 78.2709 6.80105C78.5829 6.96105 78.8309 7.17705 79.0149 7.44905C79.2069 7.72105 79.3029 8.07704 79.3029 8.51705C79.3029 8.92505 79.1909 9.30505 78.9669 9.65705C78.7429 10.001 78.3989 10.281 77.9349 10.497C77.4789 10.705 76.8909 10.809 76.1709 10.809Z" fill="#343A40"/>
<path d="M3.70959 3.73705H4.70959V8.73705H3.70959V3.73705Z" fill="#343A40"/>
<path d="M6.70959 5.73705V6.73705H1.70959L1.70959 5.73705L6.70959 5.73705Z" fill="#343A40"/>
</g>
<defs>
<filter id="filter0_f_2_64" x="0.209595" y="0.765045" width="80.5933" height="11.544" filterUnits="userSpaceOnUse" color-interpolation-filters="sRGB">
<feFlood flood-opacity="0" result="BackgroundImageFix"/>
<feBlend mode="normal" in="SourceGraphic" in2="BackgroundImageFix" result="shape"/>
<feGaussianBlur stdDeviation="0.75" result="effect1_foregroundBlur_2_64"/>
</filter>
<filter id="filter1_d_2_64" x="1.20959" y="1.76505" width="80.5933" height="11.544" filterUnits="userSpaceOnUse" color-interpolation-filters="sRGB">
<feFlood flood-opacity="0" result="BackgroundImageFix"/>
<feColorMatrix in="SourceAlpha" type="matrix" values="0 0 0 0 0 0 0 0 0 0 0 0 0 0 0 0 0 0 127 0" result="hardAlpha"/>
<feOffset dx="1" dy="1"/>
<feGaussianBlur stdDeviation="0.75"/>
<feComposite in2="hardAlpha" operator="out"/>
<feColorMatrix type="matrix" values="0 0 0 0 0.203922 0 0 0 0 0.227451 0 0 0 0 0.25098 0 0 0 0.15 0"/>
<feBlend mode="normal" in2="BackgroundImageFix" result="effect1_dropShadow_2_64"/>
<feBlend mode="normal" in="SourceGraphic" in2="effect1_dropShadow_2_64" result="shape"/>
</filter>
</defs>
</svg>
