<svg width="81" height="12" viewBox="0 0 81 12" fill="none" xmlns="http://www.w3.org/2000/svg">
<g filter="url(#filter0_d_2_62)">
<path d="M7.07759 9.2V0.799997H10.4976C11.3936 0.799997 12.1776 0.979996 12.8496 1.34C13.5296 1.692 14.0576 2.184 14.4336 2.816C14.8096 3.448 14.9976 4.176 14.9976 5C14.9976 5.824 14.8096 6.552 14.4336 7.184C14.0576 7.816 13.5296 8.312 12.8496 8.672C12.1776 9.024 11.3936 9.2 10.4976 9.2H7.07759ZM7.96559 8.432H10.4496C11.1936 8.432 11.8376 8.288 12.3816 8C12.9336 7.704 13.3616 7.3 13.6656 6.788C13.9696 6.268 14.1216 5.672 14.1216 5C14.1216 4.32 13.9696 3.724 13.6656 3.212C13.3616 2.7 12.9336 2.3 12.3816 2.012C11.8376 1.716 11.1936 1.568 10.4496 1.568H7.96559V8.432Z" fill="#F3F3F3"/>
<path d="M16.9917 9.2V0.799997H17.8797V9.2H16.9917Z" fill="#F3F3F3"/>
<path d="M19.2688 9.2L23.1088 0.799997H23.9848L27.8248 9.2H26.8888L23.3608 1.316H23.7208L20.1928 9.2H19.2688ZM20.7808 6.956L21.0448 6.236H25.9288L26.1928 6.956H20.7808Z" fill="#F3F3F3"/>
<path d="M32.7811 9.272C32.1411 9.272 31.5491 9.168 31.0051 8.96C30.4691 8.744 30.0011 8.444 29.6011 8.06C29.2091 7.676 28.9011 7.224 28.6771 6.704C28.4611 6.184 28.3531 5.616 28.3531 5C28.3531 4.384 28.4611 3.816 28.6771 3.296C28.9011 2.776 29.2131 2.324 29.6131 1.94C30.0131 1.556 30.4811 1.26 31.0171 1.052C31.5611 0.835997 32.1531 0.727997 32.7931 0.727997C33.4331 0.727997 34.0171 0.827997 34.5451 1.028C35.0811 1.228 35.5371 1.532 35.9131 1.94L35.3611 2.504C35.0091 2.152 34.6211 1.9 34.1971 1.748C33.7731 1.596 33.3171 1.52 32.8291 1.52C32.3091 1.52 31.8291 1.608 31.3891 1.784C30.9571 1.952 30.5771 2.196 30.2491 2.516C29.9291 2.828 29.6771 3.196 29.4931 3.62C29.3171 4.036 29.2291 4.496 29.2291 5C29.2291 5.496 29.3171 5.956 29.4931 6.38C29.6771 6.804 29.9291 7.176 30.2491 7.496C30.5771 7.808 30.9571 8.052 31.3891 8.228C31.8291 8.396 32.3051 8.48 32.8171 8.48C33.2971 8.48 33.7491 8.408 34.1731 8.264C34.6051 8.12 35.0011 7.876 35.3611 7.532L35.8651 8.204C35.4651 8.556 34.9971 8.824 34.4611 9.008C33.9251 9.184 33.3651 9.272 32.7811 9.272ZM35.0131 8.096V5H35.8651V8.204L35.0131 8.096Z" fill="#F3F3F3"/>
<path d="M38.3784 9.2V0.799997H39.1104L44.9064 8.096H44.5224V0.799997H45.3984V9.2H44.6664L38.8824 1.904H39.2664V9.2H38.3784Z" fill="#F3F3F3"/>
<path d="M51.8121 9.272C51.1801 9.272 50.5921 9.168 50.0481 8.96C49.5121 8.744 49.0441 8.444 48.6441 8.06C48.2521 7.668 47.9441 7.216 47.7201 6.704C47.5041 6.184 47.3961 5.616 47.3961 5C47.3961 4.384 47.5041 3.82 47.7201 3.308C47.9441 2.788 48.2521 2.336 48.6441 1.952C49.0441 1.56 49.5121 1.26 50.0481 1.052C50.5841 0.835997 51.1721 0.727997 51.8121 0.727997C52.4441 0.727997 53.0281 0.835997 53.5641 1.052C54.1001 1.26 54.5641 1.556 54.9561 1.94C55.3561 2.324 55.6641 2.776 55.8801 3.296C56.1041 3.816 56.2161 4.384 56.2161 5C56.2161 5.616 56.1041 6.184 55.8801 6.704C55.6641 7.224 55.3561 7.676 54.9561 8.06C54.5641 8.444 54.1001 8.744 53.5641 8.96C53.0281 9.168 52.4441 9.272 51.8121 9.272ZM51.8121 8.48C52.3161 8.48 52.7801 8.396 53.2041 8.228C53.6361 8.052 54.0081 7.808 54.3201 7.496C54.6401 7.176 54.8881 6.808 55.0641 6.392C55.2401 5.968 55.3281 5.504 55.3281 5C55.3281 4.496 55.2401 4.036 55.0641 3.62C54.8881 3.196 54.6401 2.828 54.3201 2.516C54.0081 2.196 53.6361 1.952 53.2041 1.784C52.7801 1.608 52.3161 1.52 51.8121 1.52C51.3081 1.52 50.8401 1.608 50.4081 1.784C49.9761 1.952 49.6001 2.196 49.2801 2.516C48.9681 2.828 48.7201 3.196 48.5361 3.62C48.3601 4.036 48.2721 4.496 48.2721 5C48.2721 5.496 48.3601 5.956 48.5361 6.38C48.7201 6.804 48.9681 7.176 49.2801 7.496C49.6001 7.808 49.9761 8.052 50.4081 8.228C50.8401 8.396 51.3081 8.48 51.8121 8.48Z" fill="#F3F3F3"/>
<path d="M60.5225 9.272C59.8985 9.272 59.2985 9.172 58.7225 8.972C58.1545 8.764 57.7145 8.5 57.4025 8.18L57.7505 7.496C58.0465 7.784 58.4425 8.028 58.9385 8.228C59.4425 8.42 59.9705 8.516 60.5225 8.516C61.0505 8.516 61.4785 8.452 61.8065 8.324C62.1425 8.188 62.3865 8.008 62.5385 7.784C62.6985 7.56 62.7785 7.312 62.7785 7.04C62.7785 6.712 62.6825 6.448 62.4905 6.248C62.3065 6.048 62.0625 5.892 61.7585 5.78C61.4545 5.66 61.1185 5.556 60.7505 5.468C60.3825 5.38 60.0145 5.288 59.6465 5.192C59.2785 5.088 58.9385 4.952 58.6265 4.784C58.3225 4.616 58.0745 4.396 57.8825 4.124C57.6985 3.844 57.6065 3.48 57.6065 3.032C57.6065 2.616 57.7145 2.236 57.9305 1.892C58.1545 1.54 58.4945 1.26 58.9505 1.052C59.4065 0.835997 59.9905 0.727997 60.7025 0.727997C61.1745 0.727997 61.6425 0.795997 62.1065 0.931997C62.5705 1.06 62.9705 1.24 63.3065 1.472L63.0065 2.18C62.6465 1.94 62.2625 1.764 61.8545 1.652C61.4545 1.54 61.0665 1.484 60.6905 1.484C60.1865 1.484 59.7705 1.552 59.4425 1.688C59.1145 1.824 58.8705 2.008 58.7105 2.24C58.5585 2.464 58.4825 2.72 58.4825 3.008C58.4825 3.336 58.5745 3.6 58.7585 3.8C58.9505 4 59.1985 4.156 59.5025 4.268C59.8145 4.38 60.1545 4.48 60.5225 4.568C60.8905 4.656 61.2545 4.752 61.6145 4.856C61.9825 4.96 62.3185 5.096 62.6225 5.264C62.9345 5.424 63.1825 5.64 63.3665 5.912C63.5585 6.184 63.6545 6.54 63.6545 6.98C63.6545 7.388 63.5425 7.768 63.3185 8.12C63.0945 8.464 62.7505 8.744 62.2865 8.96C61.8305 9.168 61.2425 9.272 60.5225 9.272Z" fill="#F3F3F3"/>
<path d="M67.4175 9.2V6.08L67.6215 6.632L64.0575 0.799997H65.0055L68.1375 5.924H67.6335L70.7655 0.799997H71.6535L68.0895 6.632L68.2935 6.08V9.2H67.4175Z" fill="#F3F3F3"/>
<path d="M75.1709 9.272C74.5469 9.272 73.9469 9.172 73.3709 8.972C72.8029 8.764 72.3629 8.5 72.0509 8.18L72.3989 7.496C72.6949 7.784 73.0909 8.028 73.5869 8.228C74.0909 8.42 74.6189 8.516 75.1709 8.516C75.6989 8.516 76.1269 8.452 76.4549 8.324C76.7909 8.188 77.0349 8.008 77.1869 7.784C77.3469 7.56 77.4269 7.312 77.4269 7.04C77.4269 6.712 77.3309 6.448 77.1389 6.248C76.9549 6.048 76.7109 5.892 76.4069 5.78C76.1029 5.66 75.7669 5.556 75.3989 5.468C75.0309 5.38 74.6629 5.288 74.2949 5.192C73.9269 5.088 73.5869 4.952 73.2749 4.784C72.9709 4.616 72.7229 4.396 72.5309 4.124C72.3469 3.844 72.2549 3.48 72.2549 3.032C72.2549 2.616 72.3629 2.236 72.5789 1.892C72.8029 1.54 73.1429 1.26 73.5989 1.052C74.0549 0.835997 74.6389 0.727997 75.3509 0.727997C75.8229 0.727997 76.2909 0.795997 76.7549 0.931997C77.2189 1.06 77.6189 1.24 77.9549 1.472L77.6549 2.18C77.2949 1.94 76.9109 1.764 76.5029 1.652C76.1029 1.54 75.7149 1.484 75.3389 1.484C74.8349 1.484 74.4189 1.552 74.0909 1.688C73.7629 1.824 73.5189 2.008 73.3589 2.24C73.2069 2.464 73.1309 2.72 73.1309 3.008C73.1309 3.336 73.2229 3.6 73.4069 3.8C73.5989 4 73.8469 4.156 74.1509 4.268C74.4629 4.38 74.8029 4.48 75.1709 4.568C75.5389 4.656 75.9029 4.752 76.2629 4.856C76.6309 4.96 76.9669 5.096 77.2709 5.264C77.5829 5.424 77.8309 5.64 78.0149 5.912C78.2069 6.184 78.3029 6.54 78.3029 6.98C78.3029 7.388 78.1909 7.768 77.9669 8.12C77.7429 8.464 77.3989 8.744 76.9349 8.96C76.4789 9.168 75.8909 9.272 75.1709 9.272Z" fill="#F3F3F3"/>
<path d="M2.70959 2.2H3.70959V7.2H2.70959V2.2Z" fill="#F3F3F3"/>
<path d="M5.70959 4.2V5.2H0.709595L0.709595 4.2L5.70959 4.2Z" fill="#F3F3F3"/>
</g>
<g filter="url(#filter1_f_2_62)">
<path d="M7.07759 9.2V0.799997H10.4976C11.3936 0.799997 12.1776 0.979996 12.8496 1.34C13.5296 1.692 14.0576 2.184 14.4336 2.816C14.8096 3.448 14.9976 4.176 14.9976 5C14.9976 5.824 14.8096 6.552 14.4336 7.184C14.0576 7.816 13.5296 8.312 12.8496 8.672C12.1776 9.024 11.3936 9.2 10.4976 9.2H7.07759ZM7.96559 8.432H10.4496C11.1936 8.432 11.8376 8.288 12.3816 8C12.9336 7.704 13.3616 7.3 13.6656 6.788C13.9696 6.268 14.1216 5.672 14.1216 5C14.1216 4.32 13.9696 3.724 13.6656 3.212C13.3616 2.7 12.9336 2.3 12.3816 2.012C11.8376 1.716 11.1936 1.568 10.4496 1.568H7.96559V8.432Z" fill="#F3F3F3"/>
<path d="M16.9917 9.2V0.799997H17.8797V9.2H16.9917Z" fill="#F3F3F3"/>
<path d="M19.2688 9.2L23.1088 0.799997H23.9848L27.8248 9.2H26.8888L23.3608 1.316H23.7208L20.1928 9.2H19.2688ZM20.7808 6.956L21.0448 6.236H25.9288L26.1928 6.956H20.7808Z" fill="#F3F3F3"/>
<path d="M32.7811 9.272C32.1411 9.272 31.5491 9.168 31.0051 8.96C30.4691 8.744 30.0011 8.444 29.6011 8.06C29.2091 7.676 28.9011 7.224 28.6771 6.704C28.4611 6.184 28.3531 5.616 28.3531 5C28.3531 4.384 28.4611 3.816 28.6771 3.296C28.9011 2.776 29.2131 2.324 29.6131 1.94C30.0131 1.556 30.4811 1.26 31.0171 1.052C31.5611 0.835997 32.1531 0.727997 32.7931 0.727997C33.4331 0.727997 34.0171 0.827997 34.5451 1.028C35.0811 1.228 35.5371 1.532 35.9131 1.94L35.3611 2.504C35.0091 2.152 34.6211 1.9 34.1971 1.748C33.7731 1.596 33.3171 1.52 32.8291 1.52C32.3091 1.52 31.8291 1.608 31.3891 1.784C30.9571 1.952 30.5771 2.196 30.2491 2.516C29.9291 2.828 29.6771 3.196 29.4931 3.62C29.3171 4.036 29.2291 4.496 29.2291 5C29.2291 5.496 29.3171 5.956 29.4931 6.38C29.6771 6.804 29.9291 7.176 30.2491 7.496C30.5771 7.808 30.9571 8.052 31.3891 8.228C31.8291 8.396 32.3051 8.48 32.8171 8.48C33.2971 8.48 33.7491 8.408 34.1731 8.264C34.6051 8.12 35.0011 7.876 35.3611 7.532L35.8651 8.204C35.4651 8.556 34.9971 8.824 34.4611 9.008C33.9251 9.184 33.3651 9.272 32.7811 9.272ZM35.0131 8.096V5H35.8651V8.204L35.0131 8.096Z" fill="#F3F3F3"/>
<path d="M38.3784 9.2V0.799997H39.1104L44.9064 8.096H44.5224V0.799997H45.3984V9.2H44.6664L38.8824 1.904H39.2664V9.2H38.3784Z" fill="#F3F3F3"/>
<path d="M51.8121 9.272C51.1801 9.272 50.5921 9.168 50.0481 8.96C49.5121 8.744 49.0441 8.444 48.6441 8.06C48.2521 7.668 47.9441 7.216 47.7201 6.704C47.5041 6.184 47.3961 5.616 47.3961 5C47.3961 4.384 47.5041 3.82 47.7201 3.308C47.9441 2.788 48.2521 2.336 48.6441 1.952C49.0441 1.56 49.5121 1.26 50.0481 1.052C50.5841 0.835997 51.1721 0.727997 51.8121 0.727997C52.4441 0.727997 53.0281 0.835997 53.5641 1.052C54.1001 1.26 54.5641 1.556 54.9561 1.94C55.3561 2.324 55.6641 2.776 55.8801 3.296C56.1041 3.816 56.2161 4.384 56.2161 5C56.2161 5.616 56.1041 6.184 55.8801 6.704C55.6641 7.224 55.3561 7.676 54.9561 8.06C54.5641 8.444 54.1001 8.744 53.5641 8.96C53.0281 9.168 52.4441 9.272 51.8121 9.272ZM51.8121 8.48C52.3161 8.48 52.7801 8.396 53.2041 8.228C53.6361 8.052 54.0081 7.808 54.3201 7.496C54.6401 7.176 54.8881 6.808 55.0641 6.392C55.2401 5.968 55.3281 5.504 55.3281 5C55.3281 4.496 55.2401 4.036 55.0641 3.62C54.8881 3.196 54.6401 2.828 54.3201 2.516C54.0081 2.196 53.6361 1.952 53.2041 1.784C52.7801 1.608 52.3161 1.52 51.8121 1.52C51.3081 1.52 50.8401 1.608 50.4081 1.784C49.9761 1.952 49.6001 2.196 49.2801 2.516C48.9681 2.828 48.7201 3.196 48.5361 3.62C48.3601 4.036 48.2721 4.496 48.2721 5C48.2721 5.496 48.3601 5.956 48.5361 6.38C48.7201 6.804 48.9681 7.176 49.2801 7.496C49.6001 7.808 49.9761 8.052 50.4081 8.228C50.8401 8.396 51.3081 8.48 51.8121 8.48Z" fill="#F3F3F3"/>
<path d="M60.5225 9.272C59.8985 9.272 59.2985 9.172 58.7225 8.972C58.1545 8.764 57.7145 8.5 57.4025 8.18L57.7505 7.496C58.0465 7.784 58.4425 8.028 58.9385 8.228C59.4425 8.42 59.9705 8.516 60.5225 8.516C61.0505 8.516 61.4785 8.452 61.8065 8.324C62.1425 8.188 62.3865 8.008 62.5385 7.784C62.6985 7.56 62.7785 7.312 62.7785 7.04C62.7785 6.712 62.6825 6.448 62.4905 6.248C62.3065 6.048 62.0625 5.892 61.7585 5.78C61.4545 5.66 61.1185 5.556 60.7505 5.468C60.3825 5.38 60.0145 5.288 59.6465 5.192C59.2785 5.088 58.9385 4.952 58.6265 4.784C58.3225 4.616 58.0745 4.396 57.8825 4.124C57.6985 3.844 57.6065 3.48 57.6065 3.032C57.6065 2.616 57.7145 2.236 57.9305 1.892C58.1545 1.54 58.4945 1.26 58.9505 1.052C59.4065 0.835997 59.9905 0.727997 60.7025 0.727997C61.1745 0.727997 61.6425 0.795997 62.1065 0.931997C62.5705 1.06 62.9705 1.24 63.3065 1.472L63.0065 2.18C62.6465 1.94 62.2625 1.764 61.8545 1.652C61.4545 1.54 61.0665 1.484 60.6905 1.484C60.1865 1.484 59.7705 1.552 59.4425 1.688C59.1145 1.824 58.8705 2.008 58.7105 2.24C58.5585 2.464 58.4825 2.72 58.4825 3.008C58.4825 3.336 58.5745 3.6 58.7585 3.8C58.9505 4 59.1985 4.156 59.5025 4.268C59.8145 4.38 60.1545 4.48 60.5225 4.568C60.8905 4.656 61.2545 4.752 61.6145 4.856C61.9825 4.96 62.3185 5.096 62.6225 5.264C62.9345 5.424 63.1825 5.64 63.3665 5.912C63.5585 6.184 63.6545 6.54 63.6545 6.98C63.6545 7.388 63.5425 7.768 63.3185 8.12C63.0945 8.464 62.7505 8.744 62.2865 8.96C61.8305 9.168 61.2425 9.272 60.5225 9.272Z" fill="#F3F3F3"/>
<path d="M67.4175 9.2V6.08L67.6215 6.632L64.0575 0.799997H65.0055L68.1375 5.924H67.6335L70.7655 0.799997H71.6535L68.0895 6.632L68.2935 6.08V9.2H67.4175Z" fill="#F3F3F3"/>
<path d="M75.1709 9.272C74.5469 9.272 73.9469 9.172 73.3709 8.972C72.8029 8.764 72.3629 8.5 72.0509 8.18L72.3989 7.496C72.6949 7.784 73.0909 8.028 73.5869 8.228C74.0909 8.42 74.6189 8.516 75.1709 8.516C75.6989 8.516 76.1269 8.452 76.4549 8.324C76.7909 8.188 77.0349 8.008 77.1869 7.784C77.3469 7.56 77.4269 7.312 77.4269 7.04C77.4269 6.712 77.3309 6.448 77.1389 6.248C76.9549 6.048 76.7109 5.892 76.4069 5.78C76.1029 5.66 75.7669 5.556 75.3989 5.468C75.0309 5.38 74.6629 5.288 74.2949 5.192C73.9269 5.088 73.5869 4.952 73.2749 4.784C72.9709 4.616 72.7229 4.396 72.5309 4.124C72.3469 3.844 72.2549 3.48 72.2549 3.032C72.2549 2.616 72.3629 2.236 72.5789 1.892C72.8029 1.54 73.1429 1.26 73.5989 1.052C74.0549 0.835997 74.6389 0.727997 75.3509 0.727997C75.8229 0.727997 76.2909 0.795997 76.7549 0.931997C77.2189 1.06 77.6189 1.24 77.9549 1.472L77.6549 2.18C77.2949 1.94 76.9109 1.764 76.5029 1.652C76.1029 1.54 75.7149 1.484 75.3389 1.484C74.8349 1.484 74.4189 1.552 74.0909 1.688C73.7629 1.824 73.5189 2.008 73.3589 2.24C73.2069 2.464 73.1309 2.72 73.1309 3.008C73.1309 3.336 73.2229 3.6 73.4069 3.8C73.5989 4 73.8469 4.156 74.1509 4.268C74.4629 4.38 74.8029 4.48 75.1709 4.568C75.5389 4.656 75.9029 4.752 76.2629 4.856C76.6309 4.96 76.9669 5.096 77.2709 5.264C77.5829 5.424 77.8309 5.64 78.0149 5.912C78.2069 6.184 78.3029 6.54 78.3029 6.98C78.3029 7.388 78.1909 7.768 77.9669 8.12C77.7429 8.464 77.3989 8.744 76.9349 8.96C76.4789 9.168 75.8909 9.272 75.1709 9.272Z" fill="#F3F3F3"/>
<path d="M2.70959 2.2H3.70959V7.2H2.70959V2.2Z" fill="#F3F3F3"/>
<path d="M5.70959 4.2V5.2H0.709595L0.709595 4.2L5.70959 4.2Z" fill="#F3F3F3"/>
</g>
<defs>
<filter id="filter0_d_2_62" x="0.209595" y="0.227997" width="80.5933" height="11.544" filterUnits="userSpaceOnUse" color-interpolation-filters="sRGB">
<feFlood flood-opacity="0" result="BackgroundImageFix"/>
<feColorMatrix in="SourceAlpha" type="matrix" values="0 0 0 0 0 0 0 0 0 0 0 0 0 0 0 0 0 0 127 0" result="hardAlpha"/>
<feOffset dx="1" dy="1"/>
<feGaussianBlur stdDeviation="0.75"/>
<feComposite in2="hardAlpha" operator="out"/>
<feColorMatrix type="matrix" values="0 0 0 0 0.0745098 0 0 0 0 0.388235 0 0 0 0 0.964706 0 0 0 0.5 0"/>
<feBlend mode="normal" in2="BackgroundImageFix" result="effect1_dropShadow_2_62"/>
<feBlend mode="normal" in="SourceGraphic" in2="effect1_dropShadow_2_62" result="shape"/>
</filter>
<filter id="filter1_f_2_62" x="0.209595" y="0.227997" width="78.5933" height="9.54401" filterUnits="userSpaceOnUse" color-interpolation-filters="sRGB">
<feFlood flood-opacity="0" result="BackgroundImageFix"/>
<feBlend mode="normal" in="SourceGraphic" in2="BackgroundImageFix" result="shape"/>
<feGaussianBlur stdDeviation="0.25" result="effect1_foregroundBlur_2_62"/>
</filter>
</defs>
</svg>
